# xmcd
#
# Track frame offsets:
# 150
# 17702
# 42079
#
# Disc length: 822 seconds
#
#
# Revision: 1
# Processed by: cddbd v1.5.2PL0 Copyright (c) Steve Scherf et al.
# Submitted via: FreeRIP 2.951 
#
DISCID=19033403
DTITLE=All-4-One - CD Single
DYEAR=1995
DGENRE=
TTITLE0=I Can Love You Like That (Edit)
TTITLE1=All-4-1 (Non-LP Bonus Track)
TTITLE2=I Can Love You Like That (LP Version)
EXTD=
EXTT0=
EXTT1=
EXTT2=
PLAYORDER=
